<?xml version="1.0" standalone="no"?>
<!DOCTYPE svg PUBLIC "-//W3C//DTD SVG 20010904//EN"
 "http://www.w3.org/TR/2001/REC-SVG-20010904/DTD/svg10.dtd">
<svg version="1.0" xmlns="http://www.w3.org/2000/svg"
 width="422.000000pt" height="510.000000pt" viewBox="0 0 422.000000 510.000000"
 preserveAspectRatio="xMidYMid meet">
<metadata>
Created by potrace 1.16, written by Peter Selinger 2001-2019
</metadata>
<g transform="translate(0.000000,510.000000) scale(0.100000,-0.100000)"
fill="#000000" stroke="none">
<path d="M2625 4934 c-342 -205 -551 -359 -736 -544 -354 -352 -417 -632 -210
-927 63 -89 218 -236 364 -346 64 -49 117 -92 117 -96 0 -11 -62 -26 -200 -47
-158 -24 -497 -25 -591 -2 -165 42 -261 105 -295 193 -46 121 30 296 209 483
33 34 57 62 53 62 -9 0 -146 -83 -251 -153 -313 -209 -464 -392 -497 -602 -43
-274 194 -439 663 -463 178 -9 380 1 564 28 150 23 396 76 510 111 115 35 114
35 151 -51 50 -115 68 -214 67 -370 0 -208 -44 -378 -157 -605 -121 -243 -276
-454 -505 -688 l-136 -139 220 153 c444 307 643 467 850 681 288 298 414 551
415 834 0 150 -43 294 -130 436 -17 26 -30 50 -30 52 0 3 51 43 113 89 258
194 372 369 372 572 0 201 -82 311 -272 366 -37 10 -68 17 -70 16 -1 -2 7 -28
19 -58 16 -40 22 -76 22 -139 0 -78 -3 -92 -37 -163 -60 -122 -223 -279 -368
-353 l-48 -24 -53 42 c-228 179 -509 452 -552 536 -81 161 -69 348 36 557 93
185 303 436 513 613 28 23 48 42 45 42 -3 0 -77 -43 -165 -96z"/>
<path d="M2603 4370 c-94 -20 -187 -90 -231 -174 -38 -72 -38 -189 -2 -260 81
-159 287 -229 452 -154 74 34 119 76 159 150 28 53 34 73 34 128 0 125 -83
245 -200 289 -63 24 -155 33 -212 21z"/>
<path d="M260 655 c-9 -11 -11 -36 -6 -95 l7 -80 -28 0 c-21 0 -40 12 -68 40
-39 40 -71 50 -93 28 -18 -18 -15 -41 13 -78 21 -28 23 -36 12 -47 -18 -18
-44 -7 -62 26 l-14 26 -1 -25 c-1 -62 74 -95 113 -52 23 25 21 48 -4 84 -34
47 -17 42 25 -7 45 -54 79 -59 119 -17 26 27 26 28 17 116 -5 49 -11 90 -13
92 -2 3 -10 -2 -17 -11z"/>
<path d="M1202 649 c-9 -14 -11 -41 -6 -94 l7 -75 -26 0 c-25 0 -37 16 -37 52
0 32 -25 15 -28 -19 -3 -25 -8 -32 -32 -35 -24 -4 -35 3 -65 39 -37 44 -69 55
-93 31 -18 -18 -15 -41 13 -78 23 -31 24 -36 10 -49 -19 -19 -43 -7 -62 30
l-13 24 0 -23 c0 -56 44 -91 91 -72 40 17 46 50 19 97 l-22 38 41 -42 42 -43
313 0 313 0 22 24 c22 23 23 29 16 121 -7 94 -8 96 -26 78 -16 -16 -17 -28
-11 -95 l8 -78 -33 0 c-22 0 -33 5 -33 14 0 8 -10 22 -22 30 -18 13 -52 16
-168 16 -80 0 -152 -5 -160 -10 -19 -12 -28 9 -30 65 -1 22 -5 48 -8 57 -7 17
-8 16 -20 -3z m286 -166 c-42 -2 -114 -2 -160 0 -46 1 -11 3 77 3 88 0 125 -2
83 -3z"/>
<path d="M1752 649 c-9 -14 -11 -41 -7 -92 9 -109 13 -121 31 -106 12 10 14
27 8 93 -4 44 -10 91 -13 103 l-6 23 -13 -21z"/>
<path d="M334 648 c-8 -13 -7 -72 4 -157 7 -50 8 -52 22 -35 13 16 14 34 7
112 -9 87 -17 107 -33 80z"/>
<path d="M674 648 c-8 -13 -7 -71 2 -130 l6 -38 -73 0 c-72 0 -88 15 -24 22
21 2 31 9 33 23 3 18 -2 20 -40 17 -49 -5 -68 -17 -68 -43 0 -13 -7 -19 -25
-19 -20 0 -25 6 -31 35 -10 56 -34 26 -34 -42 0 -30 -5 -63 -10 -74 -16 -29
14 -25 37 6 17 23 24 24 117 26 93 2 101 3 124 28 21 23 23 32 18 76 -3 28 -6
67 -6 88 0 37 -12 48 -26 25z"/>
<path d="M752 648 c-8 -10 -9 -38 -3 -96 9 -87 13 -98 30 -88 11 7 4 143 -9
179 -5 16 -8 16 -18 5z"/>
<path d="M3152 648 c-10 -10 -10 -31 3 -135 4 -32 2 -33 -31 -33 -31 0 -34 3
-34 28 0 16 -3 32 -7 35 -11 12 -33 -14 -33 -39 0 -20 -5 -24 -29 -24 -24 0
-35 9 -62 50 -27 42 -35 48 -51 39 -18 -10 -18 -11 3 -45 12 -19 18 -38 14
-42 -6 -7 -25 13 -45 48 -8 13 -11 13 -26 -2 -14 -14 -15 -20 -4 -32 10 -13
10 -16 -3 -16 -8 0 -17 6 -20 13 -3 9 -10 9 -32 -3 -34 -18 -114 -16 -152 4
-16 8 -41 27 -56 42 -26 26 -29 27 -45 10 -16 -16 -15 -19 11 -42 l28 -24 -45
0 c-44 0 -46 1 -46 28 0 16 -3 32 -7 35 -11 12 -33 -14 -33 -39 0 -20 -5 -24
-30 -24 -18 0 -30 5 -30 13 0 8 -8 21 -18 30 -16 14 -44 17 -180 17 -101 0
-163 -4 -167 -10 -5 -8 -11 -7 -21 1 -11 9 -17 9 -28 -1 -13 -10 -13 -16 2
-47 16 -34 16 -35 -6 -54 -30 -24 -60 -13 -84 32 l-18 34 0 -36 c0 -36 25 -69
62 -82 27 -9 86 12 93 33 6 19 20 20 567 22 l561 3 19 26 c18 24 19 36 13 113
-7 87 -11 96 -33 74z m-817 -158 c4 -6 -47 -10 -144 -10 -94 0 -151 4 -151 10
0 6 55 10 144 10 86 0 147 -4 151 -10z"/>
<path d="M3231 647 c-12 -15 -10 -78 5 -176 5 -31 6 -32 19 -15 11 15 13 37 8
94 -3 41 -9 83 -12 93 -6 17 -9 17 -20 4z"/>
<path d="M2817 643 c-4 -3 -7 -12 -7 -20 0 -15 26 -18 34 -4 7 11 -18 33 -27
24z"/>
<path d="M3578 605 c-6 -14 -26 -35 -45 -46 -18 -11 -38 -29 -43 -40 -10 -18
-5 -19 159 -19 102 0 172 -4 176 -10 4 -7 -65 -10 -199 -10 l-206 0 0 30 c0
31 -13 40 -26 18 -4 -6 -6 -36 -5 -65 2 -33 -3 -60 -10 -70 -11 -13 -10 -15 6
-12 11 2 24 14 30 27 10 22 12 22 206 22 183 0 198 1 223 21 27 22 34 57 14
77 -8 8 -55 12 -146 12 -124 0 -134 1 -127 18 11 25 18 72 11 72 -4 0 -12 -11
-18 -25z"/>
<path d="M420 601 c0 -12 6 -21 16 -21 9 0 14 7 12 17 -5 25 -28 28 -28 4z"/>
<path d="M3017 613 c-4 -3 -7 -12 -7 -20 0 -15 26 -18 34 -4 7 11 -18 33 -27
24z"/>
<path d="M540 594 c0 -9 7 -14 17 -12 25 5 28 28 4 28 -12 0 -21 -6 -21 -16z"/>
<path d="M3063 598 c2 -7 10 -13 17 -13 7 0 15 6 18 13 2 7 -5 12 -18 12 -13
0 -20 -5 -17 -12z"/>
<path d="M3387 604 c-9 -10 2 -24 19 -24 8 0 14 7 14 15 0 15 -21 21 -33 9z"/>
<path d="M2610 585 c0 -8 7 -15 15 -15 8 0 15 7 15 15 0 8 -7 15 -15 15 -8 0
-15 -7 -15 -15z"/>
<path d="M2795 590 c-11 -17 5 -32 21 -19 7 6 11 15 8 20 -7 12 -21 11 -29 -1z"/>
<path d="M2840 585 c0 -8 9 -15 20 -15 11 0 20 7 20 15 0 8 -9 15 -20 15 -11
0 -20 -7 -20 -15z"/>
<path d="M3932 528 c-7 -9 -10 -27 -6 -46 4 -17 1 -45 -5 -63 -15 -45 -6 -49
28 -12 25 28 32 31 62 23 19 -4 42 -11 52 -15 11 -4 29 -2 43 5 19 11 24 21
24 51 0 44 -19 59 -74 59 -28 0 -35 -4 -38 -22 -2 -16 -11 -24 -29 -26 -22 -3
-27 2 -35 29 -8 27 -11 30 -22 17z m158 -58 c0 -11 -7 -20 -15 -20 -8 0 -15 2
-15 4 0 2 -3 11 -6 20 -4 12 0 16 15 16 14 0 21 -6 21 -20z"/>
<path d="M1110 380 c0 -11 7 -20 15 -20 8 0 15 9 15 20 0 11 -7 20 -15 20 -8
0 -15 -9 -15 -20z"/>
<path d="M2424 389 c-10 -17 13 -36 27 -22 12 12 4 33 -11 33 -5 0 -12 -5 -16
-11z"/>
<path d="M2474 389 c-10 -17 13 -36 27 -22 12 12 4 33 -11 33 -5 0 -12 -5 -16
-11z"/>
<path d="M44 339 c-10 -17 13 -36 27 -22 12 12 4 33 -11 33 -5 0 -12 -5 -16
-11z"/>
<path d="M94 339 c-10 -17 13 -36 27 -22 12 12 4 33 -11 33 -5 0 -12 -5 -16
-11z"/>
<path d="M892 334 c4 -21 22 -23 26 -1 2 10 -3 17 -13 17 -10 0 -15 -6 -13
-16z"/>
<path d="M940 336 c0 -8 4 -17 9 -20 11 -7 33 18 24 27 -12 12 -33 7 -33 -7z"/>
<path d="M2465 220 c-10 -11 -16 -23 -12 -26 9 -9 47 16 47 31 0 21 -14 19
-35 -5z"/>
<path d="M827 219 c-9 -6 -17 -19 -17 -29 0 -14 -7 -20 -23 -20 -34 0 -57 -30
-57 -74 0 -41 17 -54 48 -37 15 8 21 8 24 -1 7 -21 28 3 28 32 0 16 5 52 11
80 12 58 11 63 -14 49z m-27 -78 c0 -20 -20 -61 -30 -61 -13 0 -13 12 0 44 9
25 30 36 30 17z"/>
<path d="M1217 223 c-13 -12 -7 -33 8 -33 8 0 15 9 15 20 0 20 -11 26 -23 13z"/>
<path d="M1997 224 c-14 -15 -6 -34 14 -34 14 0 19 5 17 17 -3 18 -20 27 -31
17z"/>
<path d="M2667 224 c-14 -14 -7 -35 11 -32 9 2 17 10 17 17 0 16 -18 25 -28
15z"/>
<path d="M4106 223 c-12 -12 -6 -33 9 -33 8 0 15 6 15 14 0 17 -14 28 -24 19z"/>
<path d="M63 210 c-45 -18 -72 -122 -39 -149 18 -15 78 -10 84 7 2 8 -7 12
-27 12 -28 0 -31 3 -31 33 0 47 25 79 56 71 17 -4 24 -2 24 9 0 8 -7 18 -16
21 -19 7 -23 7 -51 -4z"/>
<path d="M1078 213 c-19 -3 -29 -12 -33 -26 -10 -50 -25 -128 -25 -132 0 -11
73 -4 99 10 34 17 41 32 41 91 0 39 -3 46 -26 54 -14 6 -26 9 -27 9 -1 -1 -14
-4 -29 -6z m48 -47 c8 -34 -16 -80 -45 -84 -18 -3 -22 0 -18 15 3 10 8 35 12
56 7 44 41 53 51 13z"/>
<path d="M2594 195 c-4 -16 -13 -25 -25 -25 -31 0 -59 -36 -59 -75 0 -40 17
-52 49 -36 13 8 22 8 26 1 12 -20 22 0 28 57 4 32 10 68 13 81 5 16 2 22 -10
22 -8 0 -18 -11 -22 -25z m-14 -61 c0 -21 -18 -54 -30 -54 -13 0 -13 26 0 51
13 23 30 25 30 3z"/>
<path d="M2950 166 c-19 -91 -18 -111 6 -114 19 -3 21 1 20 40 0 24 3 62 7 86
7 34 6 42 -6 42 -11 0 -19 -17 -27 -54z"/>
<path d="M3215 208 c-12 -38 -26 -131 -21 -144 7 -19 46 -18 46 1 0 8 -4 15
-9 15 -5 0 -5 16 -1 38 20 94 20 102 4 102 -8 0 -16 -6 -19 -12z"/>
<path d="M3423 213 c-37 -7 -63 -50 -63 -104 0 -43 3 -49 24 -55 14 -3 30 -3
35 1 6 3 11 -1 11 -9 0 -12 -10 -16 -36 -16 -24 0 -34 -4 -31 -12 2 -8 20 -13
43 -13 43 0 56 16 68 88 6 30 4 37 -9 37 -8 0 -20 -12 -25 -26 -7 -16 -16 -24
-27 -22 -24 4 -27 29 -9 73 14 33 18 36 45 30 35 -7 50 10 22 24 -11 6 -21 10
-23 10 -2 -1 -13 -4 -25 -6z"/>
<path d="M3536 203 c-14 -50 -28 -144 -22 -151 10 -9 36 27 36 48 0 16 18 40
31 40 3 0 4 -20 1 -45 -4 -36 -1 -45 10 -45 11 0 17 15 22 50 8 60 2 73 -30
67 -21 -4 -22 -1 -17 24 4 22 2 29 -10 29 -9 0 -18 -8 -21 -17z"/>
<path d="M4027 213 c-2 -5 -10 -39 -17 -76 -13 -72 -6 -95 24 -84 17 7 22 27
7 27 -7 0 -1 53 14 118 4 15 1 22 -9 22 -8 0 -17 -3 -19 -7z"/>
<path d="M3086 198 c-5 -17 -26 -129 -26 -140 0 -4 23 -8 50 -8 38 0 50 4 50
15 0 10 -10 15 -31 15 -24 0 -30 4 -27 18 2 10 14 18 31 20 35 4 36 32 1 32
-20 0 -25 4 -20 16 3 9 6 18 6 20 0 2 14 4 30 4 17 0 30 5 30 10 0 15 -90 13
-94 -2z"/>
<path d="M400 182 c-9 -11 -15 -37 -15 -72 0 -53 1 -55 28 -58 19 -2 27 1 27
12 0 9 -4 16 -10 16 -11 0 -13 30 -4 54 3 9 12 16 20 16 8 0 14 5 14 10 0 6
-4 10 -10 10 -5 0 -10 7 -10 15 0 20 -21 18 -40 -3z"/>
<path d="M1910 185 c0 -8 -7 -15 -15 -15 -16 0 -20 -16 -6 -24 5 -3 6 -26 3
-52 -5 -45 -5 -46 23 -42 31 3 48 28 20 28 -14 0 -16 6 -11 28 4 15 15 33 24
41 12 10 14 15 5 18 -7 3 -13 11 -13 19 0 8 -7 14 -15 14 -8 0 -15 -7 -15 -15z"/>
<path d="M146 151 c-12 -13 -16 -32 -14 -58 3 -36 5 -38 37 -38 21 0 36 6 39
14 3 10 -1 12 -17 8 -34 -8 -36 12 -2 24 30 11 48 40 36 59 -10 17 -61 11 -79
-9z m36 -23 c-7 -7 -12 -8 -12 -2 0 14 12 26 19 19 2 -3 -1 -11 -7 -17z"/>
<path d="M259 168 c0 -2 -2 -20 -4 -41 -2 -21 -7 -47 -10 -58 -5 -15 -1 -19
14 -19 14 0 21 6 21 20 0 25 21 70 32 70 5 0 6 -20 2 -45 -5 -40 -4 -45 12
-45 13 0 19 8 20 23 1 12 5 37 9 54 6 26 4 34 -10 39 -10 4 -27 1 -38 -6 -15
-9 -22 -10 -25 -1 -3 9 -21 16 -23 9z"/>
<path d="M480 148 c0 -13 -3 -40 -6 -60 -5 -30 -3 -38 9 -38 9 0 19 16 26 44
7 30 17 45 31 49 26 7 26 27 0 27 -11 0 -20 -5 -20 -12 0 -9 -3 -9 -12 0 -18
18 -28 14 -28 -10z"/>
<path d="M575 146 c-22 -32 -16 -90 8 -94 27 -5 71 8 61 18 -5 4 -20 10 -34
12 -23 4 -23 5 13 21 31 13 38 21 35 39 -5 35 -61 38 -83 4z m41 -23 c-10 -10
-19 5 -10 18 6 11 8 11 12 0 2 -7 1 -15 -2 -18z"/>
<path d="M878 153 c-42 -48 -28 -106 24 -101 17 2 33 9 36 16 3 9 -3 13 -18
10 -13 -2 -25 3 -27 10 -3 7 4 12 15 12 25 0 56 35 49 55 -9 21 -60 19 -79 -2z
m34 -25 c-7 -7 -12 -8 -12 -2 0 14 12 26 19 19 2 -3 -1 -11 -7 -17z"/>
<path d="M1193 122 c-11 -58 -8 -72 19 -72 16 0 19 5 15 22 -4 13 -2 40 2 61
8 32 6 37 -9 37 -13 0 -20 -12 -27 -48z"/>
<path d="M1277 152 c-21 -23 -23 -90 -3 -98 8 -3 24 -1 35 5 14 8 22 8 27 0
11 -19 22 4 26 56 l3 50 -36 3 c-24 2 -40 -3 -52 -16z m53 -11 c0 -20 -20 -61
-30 -61 -13 0 -13 26 0 51 11 20 30 26 30 10z"/>
<path d="M1410 150 c-25 -25 -28 -88 -4 -97 9 -3 25 -1 35 6 16 9 19 8 19 -9
0 -16 -7 -20 -36 -20 -24 0 -34 -4 -32 -12 5 -15 67 -22 84 -11 6 5 14 43 17
86 l5 77 -34 0 c-21 0 -42 -8 -54 -20z m40 -49 c-6 -12 -16 -21 -21 -21 -14 0
-2 52 14 62 16 10 21 -16 7 -41z"/>
<path d="M1535 158 c-2 -7 -6 -34 -10 -60 -8 -63 17 -67 37 -6 19 60 40 63 32
4 -5 -37 -4 -46 8 -46 10 0 18 14 22 37 11 69 8 83 -17 83 -13 0 -28 -5 -35
-12 -9 -9 -12 -9 -12 0 0 16 -20 15 -25 0z"/>
<path d="M1676 155 c-32 -33 -33 -89 -1 -101 44 -17 91 32 83 88 -4 29 -57 38
-82 13z m49 -14 c3 -6 -1 -25 -9 -43 -11 -27 -15 -30 -21 -15 -14 34 12 86 30
58z"/>
<path d="M1797 163 c-13 -13 -7 -52 10 -62 18 -10 12 -26 -10 -26 -7 0 -13 -4
-14 -10 -5 -18 59 -11 71 7 8 13 6 22 -12 41 -27 29 -28 40 -2 32 14 -5 20 -2
20 9 0 16 -49 23 -63 9z"/>
<path d="M1984 145 c-3 -13 -7 -39 -7 -57 -2 -26 2 -33 17 -33 16 0 19 8 21
58 1 41 -2 57 -12 57 -7 0 -15 -11 -19 -25z"/>
<path d="M2066 154 c-22 -21 -31 -64 -19 -83 11 -17 63 -22 62 -6 0 6 -7 9
-15 7 -9 -2 -14 6 -14 26 0 32 16 53 36 45 8 -3 14 1 14 11 0 21 -43 21 -64 0z"/>
<path d="M2210 148 c0 -13 -3 -40 -6 -60 -5 -30 -3 -38 9 -38 9 0 19 17 26 45
15 61 36 60 27 -1 -5 -39 -4 -45 11 -42 10 2 20 16 24 34 13 68 42 75 32 9 -5
-36 -3 -45 9 -45 15 0 28 45 28 97 0 20 -5 22 -52 21 -29 0 -58 -5 -65 -10 -7
-5 -14 -5 -18 2 -11 18 -25 11 -25 -12z"/>
<path d="M2416 155 c-32 -33 -33 -89 -1 -101 20 -8 65 4 65 17 0 7 -10 9 -25
5 -37 -9 -32 17 6 31 24 9 30 17 27 35 -4 29 -48 37 -72 13z m42 -17 c-2 -6
-10 -14 -16 -16 -7 -2 -10 2 -6 12 7 18 28 22 22 4z"/>
<path d="M2653 153 c-4 -9 -7 -35 -7 -57 -1 -32 3 -41 18 -44 15 -3 18 0 13
20 -3 12 -2 40 2 61 7 29 6 37 -5 37 -8 0 -18 -8 -21 -17z"/>
<path d="M2731 151 c-26 -26 -29 -86 -5 -95 29 -11 54 -6 54 10 0 10 -5 14
-15 10 -9 -3 -18 1 -22 10 -8 20 12 62 29 61 23 -3 24 18 1 21 -12 2 -31 -6
-42 -17z"/>
<path d="M2834 162 c-53 -35 -35 -136 18 -103 17 10 22 10 29 0 13 -22 23 -2
26 56 l3 55 -32 0 c-18 0 -38 -4 -44 -8z m34 -52 c-5 -17 -14 -30 -19 -30 -13
0 -11 44 3 58 19 19 28 4 16 -28z"/>
<path d="M3660 150 c-41 -41 -13 -119 32 -91 14 9 23 9 27 2 13 -21 26 5 28
57 l2 52 -34 0 c-22 0 -43 -8 -55 -20z m40 -50 c-6 -11 -15 -18 -20 -15 -10 6
-3 32 14 54 9 12 11 12 14 -2 2 -9 -2 -25 -8 -37z"/>
<path d="M3780 156 c0 -8 7 -16 16 -18 14 -2 13 -8 -10 -34 -37 -45 -34 -54
25 -54 36 0 49 4 47 13 -3 6 -14 13 -26 15 -28 4 -27 8 3 44 34 40 32 48 -15
48 -28 0 -40 -4 -40 -14z"/>
<path d="M3890 150 c-28 -28 -27 -86 2 -96 15 -4 25 -1 35 12 7 10 13 12 13 6
0 -7 6 -12 14 -12 13 0 30 86 19 102 -9 16 -64 7 -83 -12z m40 -49 c-6 -12
-16 -21 -21 -21 -14 0 -2 52 14 62 16 10 21 -16 7 -41z"/>
<path d="M4096 162 c-14 -23 -23 -91 -13 -101 23 -23 32 -10 34 49 1 54 -7 74
-21 52z"/>
<path d="M3260 130 c0 -5 16 -10 35 -10 19 0 35 5 35 10 0 6 -16 10 -35 10
-19 0 -35 -4 -35 -10z"/>
</g>
</svg>
