<?xml version="1.0" standalone="no"?>
<!DOCTYPE svg PUBLIC "-//W3C//DTD SVG 20010904//EN"
 "http://www.w3.org/TR/2001/REC-SVG-20010904/DTD/svg10.dtd">
<svg version="1.0" xmlns="http://www.w3.org/2000/svg"
 width="684.000000pt" height="355.000000pt" viewBox="0 0 684.000000 355.000000"
 preserveAspectRatio="xMidYMid meet">
<metadata>
Created by potrace 1.16, written by Peter Selinger 2001-2019
</metadata>
<g transform="translate(0.000000,355.000000) scale(0.100000,-0.100000)"
fill="#000000" stroke="none">
<path d="M1838 3402 c-42 -21 -98 -55 -125 -74 -27 -20 -60 -39 -73 -43 -13
-4 -32 -15 -43 -25 -10 -10 -47 -33 -80 -51 -34 -18 -73 -43 -87 -56 -14 -13
-30 -23 -36 -23 -12 0 -74 -50 -111 -89 -13 -13 -45 -38 -73 -56 -47 -31 -105
-90 -175 -179 -16 -22 -38 -46 -47 -55 -31 -30 -90 -182 -95 -249 -6 -62 19
-182 38 -182 4 0 13 -16 19 -35 6 -19 23 -49 38 -66 39 -45 253 -239 265 -239
5 0 37 -22 71 -48 33 -27 69 -51 79 -55 30 -11 19 -24 -25 -30 -24 -3 -90 -12
-148 -21 -135 -20 -269 -25 -395 -15 -99 7 -235 38 -287 65 -36 19 -86 82 -99
125 -15 48 9 133 56 198 19 27 35 51 35 55 0 17 46 66 62 66 10 0 18 5 18 12
0 6 7 20 17 30 9 10 11 18 6 18 -14 0 -101 -49 -108 -61 -4 -5 -14 -9 -24 -9
-11 0 -47 -21 -81 -47 -35 -27 -84 -61 -109 -78 -90 -58 -154 -120 -212 -209
-95 -145 -103 -264 -23 -362 42 -50 74 -70 169 -105 168 -62 248 -74 485 -72
199 1 367 19 545 58 117 25 236 50 323 68 33 7 56 7 62 1 19 -19 70 -186 81
-261 16 -115 7 -184 -54 -399 -8 -28 -21 -62 -28 -76 -91 -170 -139 -249 -173
-288 -23 -27 -52 -66 -66 -89 -13 -23 -30 -41 -37 -41 -7 0 -17 -10 -24 -22
-10 -22 -42 -58 -104 -120 -103 -102 -152 -156 -136 -151 9 4 34 20 56 38 22
18 51 38 65 45 14 7 27 16 30 20 3 4 19 16 36 26 17 11 57 36 88 57 31 20 60
37 65 37 4 0 29 16 54 35 25 19 49 35 53 35 6 0 41 28 108 87 11 9 47 33 82
54 34 21 94 70 132 109 39 38 74 70 79 70 6 0 22 12 36 28 15 15 40 41 57 57
16 17 30 33 30 37 0 4 10 18 23 32 61 67 137 171 137 188 0 7 19 49 41 93 40
77 42 84 47 197 6 136 -4 186 -54 270 -19 33 -34 65 -34 71 0 7 -12 30 -27 52
l-26 39 34 29 c19 16 52 37 74 48 22 10 69 45 105 78 36 34 68 61 71 61 3 0
20 22 37 49 18 27 39 51 47 55 8 3 15 12 15 19 0 8 7 28 15 44 41 82 39 217
-3 300 -20 37 -112 113 -138 113 -11 0 -39 7 -63 16 -24 8 -46 12 -49 10 -2
-3 3 -33 12 -67 28 -99 6 -202 -57 -265 -20 -21 -37 -42 -37 -49 0 -14 -52
-65 -66 -65 -6 0 -33 -17 -61 -38 -27 -20 -76 -51 -107 -67 -47 -25 -59 -27
-74 -17 -9 7 -30 20 -46 30 -16 9 -43 30 -60 46 -17 16 -44 34 -61 42 -16 7
-48 31 -70 54 -22 23 -63 59 -90 80 -92 68 -174 157 -201 218 -38 81 -44 199
-16 285 11 34 23 76 27 93 3 18 25 57 48 87 23 30 67 89 97 131 30 42 57 76
61 76 4 0 57 49 118 110 61 60 123 116 138 124 59 32 4 14 -69 -22z"/>
<path d="M1758 2931 c-109 -43 -178 -135 -178 -234 0 -80 28 -138 86 -178 112
-77 234 -88 349 -33 131 64 187 231 108 324 -8 8 -24 29 -38 45 -62 80 -224
117 -327 76z"/>
<path d="M2656 1821 c-5 -7 -7 -90 -5 -185 l4 -171 -32 -3 c-28 -3 -34 1 -44
25 -6 15 -17 42 -24 58 -7 17 -17 42 -23 58 -13 31 -56 38 -66 11 -15 -39 2
-173 27 -212 9 -14 0 -69 -13 -77 -13 -8 -40 6 -40 21 0 8 -4 14 -9 14 -5 0
-12 10 -14 23 -3 15 -5 12 -6 -11 -3 -80 61 -120 110 -71 19 19 21 29 16 87
-4 35 -13 75 -22 88 -8 13 -15 35 -15 49 0 24 2 25 15 11 8 -8 15 -20 15 -26
0 -7 6 -24 14 -38 7 -15 17 -40 22 -56 6 -20 19 -33 38 -39 25 -8 31 -6 47 14
10 13 19 34 19 47 0 12 5 22 10 22 6 0 10 7 10 15 0 8 5 15 10 15 13 0 13 37
1 42 -5 2 -11 51 -12 111 -2 59 -7 107 -11 107 -4 0 -8 19 -10 43 -2 28 -6 38
-12 28z"/>
<path d="M2746 1821 c-15 -23 0 -425 15 -415 10 6 10 190 0 334 -4 61 -9 90
-15 81z"/>
<path d="M3640 1805 c-10 -24 -10 -59 -1 -179 7 -92 8 -153 3 -158 -5 -5 -20
-8 -33 -6 -22 3 -24 8 -27 76 -2 43 -7 70 -12 67 -6 -4 -10 -15 -10 -26 0 -10
-4 -19 -10 -19 -5 0 -10 -22 -10 -50 0 -48 -1 -50 -29 -50 -29 0 -32 3 -73
100 -26 61 -32 70 -48 70 -36 0 -55 -61 -39 -126 6 -21 13 -50 16 -64 3 -14
10 -27 14 -30 9 -6 13 -32 11 -66 -4 -46 -60 -35 -80 15 l-10 26 -1 -27 c-1
-38 16 -78 34 -78 8 0 15 -9 15 -20 0 -13 7 -20 20 -20 13 0 20 7 20 20 0 10
8 23 18 29 23 13 23 148 -2 185 -18 29 -21 56 -6 56 11 0 28 -38 37 -85 4 -16
16 -40 27 -52 21 -23 23 -23 335 -23 l314 0 26 28 26 27 -2 199 c-2 110 -5
202 -8 204 -3 3 -11 0 -17 -6 -14 -14 -14 -32 -8 -227 l3 -130 -29 0 c-25 0
-29 4 -32 29 -2 16 -16 42 -32 58 l-28 28 -147 0 c-117 0 -149 -3 -162 -15 -8
-8 -19 -13 -24 -10 -5 4 -10 54 -10 113 -1 59 -5 121 -9 137 l-7 30 -13 -30z
m378 -327 c-4 -10 -46 -14 -158 -16 -158 -3 -186 0 -175 18 10 16 338 13 333
-2z"/>
<path d="M4210 1806 c-10 -27 2 -391 13 -403 3 -3 11 -2 17 2 14 9 4 404 -11
419 -5 5 -13 -2 -19 -18z"/>
<path d="M3088 1803 c-3 -10 -2 -83 2 -163 4 -80 5 -153 2 -162 -4 -15 -16
-18 -66 -18 -35 0 -65 2 -68 5 -12 12 18 55 37 55 25 0 48 35 40 61 -7 20 -25
27 -25 9 0 -5 -14 -10 -31 -10 -41 0 -58 -24 -59 -77 0 -39 -2 -43 -25 -43
-22 0 -25 4 -25 34 0 19 -4 38 -10 41 -5 3 -10 21 -11 38 l-1 32 -8 -30 c-5
-16 -10 -90 -12 -163 -2 -108 -1 -129 10 -115 6 9 12 26 12 38 0 32 39 45 140
45 78 0 91 2 100 19 5 11 10 27 10 37 0 9 6 22 14 28 19 15 10 356 -9 356 -7
0 -15 -8 -17 -17z"/>
<path d="M3167 1799 c-7 -28 9 -378 17 -387 4 -3 6 7 6 21 0 15 5 27 10 27 6
0 10 20 10 45 0 25 -4 45 -10 45 -6 0 -10 46 -11 118 0 123 -10 179 -22 131z"/>
<path d="M5664 1786 c-3 -19 -4 -39 -1 -43 3 -5 7 -69 8 -143 l2 -135 -34 0
c-25 0 -33 4 -31 15 2 8 -2 40 -9 70 -11 47 -14 51 -20 30 -4 -14 -7 -46 -8
-72 -1 -47 -1 -48 -34 -48 -38 0 -47 13 -67 100 -15 63 -39 123 -40 99 0 -9
-6 -19 -14 -22 -15 -6 -12 -45 9 -92 25 -56 29 -85 12 -85 -20 0 -29 15 -37
60 -3 22 -11 35 -20 35 -11 0 -15 -11 -13 -47 1 -53 -2 -56 -30 -31 -18 17
-19 17 -32 0 -27 -37 -185 -14 -185 28 0 7 -11 23 -23 36 -13 13 -27 36 -31
52 -8 32 -22 35 -31 6 -8 -24 13 -100 29 -111 20 -14 -11 -29 -50 -26 l-39 3
-5 70 c-6 75 -17 62 -22 -25 -3 -42 -5 -45 -34 -48 -33 -3 -44 13 -44 63 0 21
-32 55 -50 55 -6 0 -10 5 -10 10 0 6 -54 10 -143 10 l-144 0 -12 -26 c-14 -32
-42 -28 -52 6 -6 21 -7 22 -8 4 -1 -11 -5 -24 -10 -30 -5 -5 -3 -30 5 -59 17
-66 17 -95 -1 -139 -29 -68 -72 -34 -95 74 l-8 35 -1 -45 c-1 -52 16 -122 33
-132 6 -4 28 -8 49 -8 40 0 68 22 77 63 l6 22 569 3 570 2 20 23 c40 44 46 84
39 261 -5 126 -10 166 -20 166 -7 0 -16 -15 -20 -34z m-848 -291 c7 -13 9 -26
6 -30 -8 -8 -312 -6 -312 3 0 4 3 17 6 30 6 21 10 22 148 22 140 0 141 0 152
-25z"/>
<path d="M5746 1790 c-8 -39 8 -368 18 -377 16 -17 21 21 18 158 -1 84 -8 171
-16 201 l-14 53 -6 -35z"/>
<path d="M5320 1766 c0 -20 5 -26 21 -26 15 0 20 5 17 22 -5 34 -38 37 -38 4z"/>
<path d="M2830 1718 c0 -13 5 -30 10 -38 7 -11 10 -5 10 23 0 20 -4 37 -10 37
-5 0 -10 -10 -10 -22z"/>
<path d="M2964 1726 c-4 -9 -2 -27 4 -39 10 -22 10 -21 17 6 9 33 -10 62 -21
33z"/>
<path d="M5537 1720 c-8 -29 7 -61 16 -36 4 9 3 26 -2 38 l-8 22 -6 -24z"/>
<path d="M5580 1715 c0 -16 6 -25 15 -25 9 0 15 9 15 25 0 16 -6 25 -15 25 -9
0 -15 -9 -15 -25z"/>
<path d="M6105 1689 c-11 -28 -28 -58 -37 -66 -10 -9 -18 -27 -18 -40 0 -13
-7 -26 -15 -29 -8 -4 -15 -12 -15 -20 0 -11 31 -14 170 -14 139 0 170 -3 170
-14 0 -8 7 -17 16 -20 8 -3 12 -10 9 -16 -4 -6 -85 -10 -214 -10 l-208 0 -7
61 c-7 55 -9 59 -21 43 -11 -15 -13 -41 -8 -120 4 -67 2 -113 -6 -135 l-11
-34 24 30 c14 17 25 38 26 48 0 16 15 17 179 17 201 0 232 4 249 31 19 31 27
127 12 154 -11 21 -21 25 -62 25 -32 0 -48 4 -48 13 0 8 -4 7 -10 -3 -6 -10
-10 -11 -10 -2 0 8 -18 12 -55 12 -30 0 -55 -4 -55 -10 0 -15 -19 -12 -36 4
-16 16 -19 43 -5 48 12 4 26 98 14 98 -5 0 -17 -23 -28 -51z"/>
<path d="M5920 1710 c0 -11 7 -20 15 -20 17 0 18 2 9 24 -9 23 -24 20 -24 -4z"/>
<path d="M5110 1685 c0 -14 5 -25 10 -25 6 0 10 11 10 25 0 14 -4 25 -10 25
-5 0 -10 -11 -10 -25z"/>
<path d="M5306 1693 c-4 -11 -3 -28 0 -38 7 -16 8 -16 16 4 4 13 4 30 -1 39
-7 13 -9 12 -15 -5z"/>
<path d="M5360 1685 c0 -14 5 -25 10 -25 6 0 10 11 10 25 0 14 -4 25 -10 25
-5 0 -10 -11 -10 -25z"/>
<path d="M6490 1548 c0 -7 -1 -68 -3 -134 -1 -94 1 -118 10 -105 6 9 13 28 15
41 2 14 11 26 21 28 25 5 77 -18 77 -33 0 -15 27 -28 41 -19 5 3 9 10 9 15 0
6 7 18 16 27 14 13 16 30 11 96 -4 43 -8 80 -9 82 -2 1 -23 4 -48 5 l-45 4 -5
-45 c-5 -42 -7 -45 -37 -48 -33 -3 -33 -3 -33 42 0 25 -4 48 -10 51 -5 3 -10
0 -10 -7z m164 -74 c3 -9 6 -29 6 -46 0 -25 -3 -29 -22 -26 -19 2 -24 10 -26
46 -3 36 0 42 16 42 11 0 23 -7 26 -16z"/>
<path d="M3547 1294 c-13 -13 -7 -62 8 -68 18 -7 28 13 23 45 -3 23 -19 35
-31 23z"/>
<path d="M4924 1293 c-11 -4 -10 -23 2 -63 5 -13 6 -13 14 0 12 18 13 57 3 63
-5 2 -13 2 -19 0z"/>
<path d="M4970 1254 c0 -21 4 -33 10 -29 6 3 10 19 10 36 0 16 -4 29 -10 29
-5 0 -10 -16 -10 -36z"/>
<path d="M3317 1171 c-5 -22 0 -31 20 -31 7 0 13 11 13 25 0 30 -25 34 -33 6z"/>
<path d="M3370 1166 c0 -20 5 -26 21 -26 15 0 20 5 17 22 -5 34 -38 37 -38 4z"/>
<path d="M2436 1164 c-9 -23 -8 -24 14 -24 11 0 20 2 20 4 0 12 -13 36 -20 36
-4 0 -11 -7 -14 -16z"/>
<path d="M2490 1150 c0 -16 4 -30 9 -30 13 0 21 27 15 45 -10 25 -24 17 -24
-15z"/>
<path d="M4962 945 c-14 -30 -16 -84 -3 -69 15 16 29 71 22 83 -5 8 -12 3 -19
-14z"/>
<path d="M3656 935 c-11 -30 -7 -65 9 -65 17 0 21 46 6 68 -7 11 -10 10 -15
-3z"/>
<path d="M4466 934 c-13 -34 -7 -64 14 -64 14 0 20 7 20 24 0 30 -9 56 -20 56
-4 0 -11 -7 -14 -16z"/>
<path d="M5156 915 c-8 -30 -1 -45 20 -45 11 0 14 9 12 32 -4 39 -23 47 -32
13z"/>
<path d="M2454 894 c-48 -50 -70 -194 -43 -273 9 -27 16 -31 45 -31 29 0 34 3
34 24 0 18 -6 25 -22 28 -20 3 -23 10 -26 58 -5 84 30 208 46 162 6 -20 32
-13 32 8 0 11 -4 20 -8 20 -5 0 -13 8 -18 18 -8 17 -12 16 -40 -14z"/>
<path d="M3235 875 c-6 -47 -10 -55 -29 -55 -33 0 -48 -36 -53 -124 -5 -97 4
-119 37 -86 l23 23 13 -24 c15 -26 16 -22 19 51 1 25 5 96 9 158 6 76 5 112
-2 112 -6 0 -14 -25 -17 -55z m-20 -171 c-6 -49 -26 -76 -40 -54 -10 17 8 122
24 138 15 14 16 14 19 -8 2 -13 1 -47 -3 -76z"/>
<path d="M3525 910 c-7 -22 -24 -27 -26 -7 -2 27 -17 -73 -24 -163 -4 -52 -12
-98 -17 -101 -6 -4 -7 -16 -3 -28 4 -15 15 -21 36 -21 16 0 29 5 29 10 0 6 8
10 19 10 29 0 50 58 57 157 6 81 5 91 -17 125 -27 42 -45 48 -54 18z m41 -66
c9 -34 -2 -145 -14 -153 -5 -3 -11 -15 -13 -26 -3 -11 -12 -21 -22 -23 -15 -3
-17 5 -17 60 0 35 3 87 6 116 6 46 9 52 30 52 17 0 25 -7 30 -26z"/>
<path d="M5100 905 c0 -14 -4 -25 -10 -25 -5 0 -10 -13 -10 -30 0 -21 -5 -30
-16 -30 -21 0 -43 -29 -44 -57 0 -12 -4 -25 -10 -28 -16 -10 -11 -108 6 -130
10 -12 18 -15 21 -9 2 6 10 20 18 30 13 17 14 18 15 2 0 -10 6 -18 13 -18 11
0 15 28 20 113 4 61 9 133 13 160 5 32 3 47 -5 47 -6 0 -11 -11 -11 -25z m-37
-219 c-5 -22 -15 -42 -22 -44 -11 -4 -13 8 -7 64 8 83 29 119 34 58 2 -21 -1
-57 -5 -78z"/>
<path d="M5476 913 c-2 -10 -7 -67 -11 -128 -3 -60 -9 -125 -12 -142 -4 -28
-2 -33 14 -33 16 0 19 8 18 68 0 37 4 109 8 160 6 60 5 92 -2 92 -5 0 -12 -8
-15 -17z"/>
<path d="M5736 908 c-11 -55 -27 -279 -21 -297 3 -12 12 -21 18 -21 8 0 12 32
13 105 1 58 5 134 9 170 4 44 3 65 -4 65 -6 0 -13 -10 -15 -22z"/>
<path d="M5947 890 c-35 -34 -38 -41 -48 -125 -14 -108 -1 -175 31 -175 11 0
20 5 20 10 0 6 5 10 10 10 6 0 10 -16 10 -35 0 -33 -2 -35 -35 -35 -19 0 -35
-4 -35 -10 0 -5 20 -10 44 -10 l44 0 6 68 c4 37 9 86 13 110 3 28 2 42 -6 42
-13 0 -17 -9 -26 -62 -4 -29 -11 -38 -26 -38 -11 0 -22 7 -26 16 -10 26 14
183 31 199 17 17 36 20 36 5 0 -5 5 -10 10 -10 14 0 12 30 -3 56 -12 20 -13
19 -50 -16z"/>
<path d="M6077 892 c-15 -93 -27 -275 -18 -289 6 -12 10 -5 15 28 16 104 29
149 44 149 12 0 14 -10 9 -52 -3 -29 -8 -66 -12 -83 -7 -36 10 -68 24 -46 12
18 24 174 16 200 -4 14 -14 19 -33 18 -27 -2 -27 -2 -24 56 4 64 -12 79 -21
19z"/>
<path d="M6589 928 c0 -2 -6 -68 -13 -148 -11 -120 -11 -149 0 -170 15 -29 14
-32 19 80 1 47 6 120 10 163 5 54 4 77 -4 77 -6 0 -11 -1 -12 -2z"/>
<path d="M6670 900 c0 -16 5 -30 10 -30 6 0 10 14 10 30 0 17 -4 30 -10 30 -5
0 -10 -13 -10 -30z"/>
<path d="M5603 868 c-7 -24 -15 -96 -19 -160 l-6 -118 46 0 c42 0 46 2 46 25
0 20 -5 25 -25 25 -22 0 -25 4 -25 40 0 36 3 40 25 40 22 0 25 4 25 35 0 28
-4 35 -20 35 -14 0 -20 7 -20 24 0 42 11 56 41 56 22 0 29 5 29 20 0 17 -7 20
-43 20 -42 0 -43 -1 -54 -42z"/>
<path d="M2820 855 c-8 -16 -17 -32 -20 -35 -3 -3 -4 -56 -2 -117 3 -104 5
-113 23 -113 14 0 19 7 19 24 0 14 -4 28 -10 31 -17 10 0 128 21 147 23 19 24
28 5 28 -9 0 -16 13 -18 33 l-4 32 -14 -30z"/>
<path d="M4374 848 c-4 -13 -12 -26 -18 -30 -8 -5 -8 -13 1 -27 8 -13 10 -47
6 -110 l-6 -91 25 0 c19 0 27 6 30 25 4 20 1 25 -14 25 -18 0 -19 5 -12 73 4
39 13 77 20 82 16 13 6 75 -11 75 -8 0 -17 -10 -21 -22z"/>
<path d="M2546 798 c-16 -23 -23 -158 -10 -192 8 -20 41 -21 60 -2 22 23 17
39 -11 34 -14 -3 -28 -1 -31 3 -10 17 7 48 29 55 31 9 37 22 37 77 0 45 -1 47
-29 47 -20 0 -35 -8 -45 -22z m39 -58 c-4 -11 -11 -20 -16 -20 -10 0 -12 53
-2 64 11 11 25 -23 18 -44z"/>
<path d="M2650 736 c0 -46 -3 -98 -6 -115 -5 -24 -3 -31 10 -31 13 0 16 10 16
49 0 28 5 53 10 56 6 3 10 15 10 26 0 10 5 19 10 19 6 0 10 9 10 20 0 11 5 20
11 20 9 0 10 -27 5 -95 -6 -78 -5 -95 7 -95 11 0 16 24 20 99 4 55 4 106 1
115 -7 17 -30 22 -36 7 -1 -4 -13 -12 -25 -15 -17 -6 -23 -3 -23 8 0 9 -4 16
-10 16 -6 0 -10 -35 -10 -84z"/>
<path d="M2898 813 c-3 -4 -6 -56 -7 -115 -2 -116 12 -147 23 -50 13 117 17
130 37 135 25 7 25 37 -1 37 -12 0 -20 -7 -20 -17 -1 -17 -2 -17 -14 0 -8 10
-16 15 -18 10z"/>
<path d="M3000 805 c-19 -23 -31 -132 -19 -177 8 -33 14 -38 38 -38 27 0 41
15 41 42 0 5 -12 8 -27 6 -24 -3 -28 1 -31 25 -3 21 1 27 17 27 35 0 52 28 49
79 -3 41 -6 46 -29 49 -15 2 -31 -4 -39 -13z m40 -50 c0 -24 -5 -35 -15 -35
-15 0 -22 50 -8 63 15 15 23 5 23 -28z"/>
<path d="M3300 790 c-28 -40 -34 -158 -8 -183 20 -21 45 -22 64 -3 22 23 17
37 -13 34 -24 -3 -28 1 -31 25 -3 21 1 27 17 27 43 0 74 64 55 114 -11 28 -60
20 -84 -14z m50 -30 c0 -29 -4 -40 -15 -40 -19 0 -20 45 -2 65 17 20 17 20 17
-25z"/>
<path d="M3646 803 c-3 -10 -10 -56 -15 -101 -9 -69 -8 -86 3 -98 8 -8 18 -14
23 -14 4 0 9 52 10 115 1 104 -7 144 -21 98z"/>
<path d="M3723 794 c-19 -22 -23 -37 -23 -99 0 -107 13 -128 50 -83 l17 22 7
-22 c12 -37 35 -5 26 35 -5 18 -4 50 1 71 5 20 9 52 9 70 0 30 -2 32 -32 32
-23 0 -40 -8 -55 -26z m40 -108 c-5 -22 -15 -42 -22 -44 -11 -4 -13 8 -7 64 8
83 29 119 34 58 2 -21 -1 -57 -5 -78z"/>
<path d="M3862 805 c-17 -19 -27 -184 -13 -205 8 -12 13 -11 29 8 27 31 32 28
32 -23 0 -45 0 -45 -35 -45 -19 0 -35 -4 -35 -10 0 -5 20 -10 45 -10 l45 0 2
110 c1 61 2 127 3 148 0 34 -2 37 -30 39 -17 2 -36 -4 -43 -12z m45 -77 c-6
-65 -16 -87 -40 -88 -15 0 4 134 21 148 9 6 18 12 20 12 3 0 2 -32 -1 -72z"/>
<path d="M3995 801 c-3 -12 -4 -24 -1 -29 2 -4 1 -41 -5 -81 -5 -44 -5 -80 0
-89 10 -18 13 -10 25 68 16 98 19 110 33 110 12 0 13 -16 7 -95 -6 -81 -4 -95
8 -95 12 0 17 19 21 83 11 139 10 147 -17 147 -13 0 -27 -8 -31 -17 -6 -17 -7
-17 -20 0 -13 18 -14 17 -20 -2z"/>
<path d="M4160 810 c0 -5 -6 -10 -14 -10 -14 0 -19 -14 -31 -97 -15 -96 43
-155 79 -80 23 50 32 143 16 172 -13 24 -50 35 -50 15z m30 -82 c0 -54 -15
-102 -30 -93 -13 8 -13 80 1 129 14 50 29 31 29 -36z"/>
<path d="M4266 804 c-13 -33 -6 -102 10 -108 24 -9 15 -61 -11 -61 -18 0 -21
-6 -16 -35 2 -15 30 -12 47 4 26 26 28 70 5 107 -12 19 -21 44 -21 57 0 19 4
21 27 16 22 -6 25 -4 20 10 -4 10 -7 20 -7 22 0 12 -49 2 -54 -12z"/>
<path d="M4456 793 c-12 -61 -16 -179 -7 -192 8 -12 12 -12 25 2 18 18 21 37
6 37 -6 0 -10 28 -10 64 0 36 5 68 10 71 15 9 12 45 -4 45 -8 0 -17 -12 -20
-27z"/>
<path d="M4540 802 c-16 -18 -27 -144 -16 -187 7 -28 39 -34 62 -11 20 20 18
24 -13 28 -28 3 -28 3 -26 72 3 72 13 90 46 82 12 -3 17 2 17 15 0 25 -48 26
-70 1z"/>
<path d="M4700 784 c0 -23 -3 -75 -6 -117 -10 -112 11 -98 26 18 9 68 17 95
26 95 11 0 14 -18 14 -73 0 -40 -4 -77 -9 -82 -6 -6 -4 -15 5 -23 15 -14 14
-17 34 106 17 106 36 91 31 -26 -2 -60 0 -92 7 -92 6 0 13 8 16 18 10 34 18
170 11 191 -6 21 -45 30 -45 11 0 -5 -7 -10 -15 -10 -8 0 -15 5 -15 10 0 17
-37 11 -44 -7 -6 -14 -8 -14 -21 3 -13 18 -14 16 -15 -22z"/>
<path d="M4930 810 c0 -5 -6 -10 -14 -10 -18 0 -23 -15 -32 -89 -8 -71 8 -121
37 -121 11 0 19 4 19 9 0 5 7 11 15 13 11 2 12 7 4 18 -8 11 -12 12 -16 2 -8
-21 -23 -3 -23 29 0 22 6 32 24 39 44 16 48 120 5 120 -10 0 -19 -4 -19 -10z
m20 -55 c0 -25 -4 -35 -16 -35 -11 0 -14 5 -10 16 3 9 6 24 6 35 0 10 5 19 10
19 6 0 10 -16 10 -35z"/>
<path d="M5147 753 c-12 -120 -10 -143 13 -143 11 0 20 7 20 15 0 8 -5 15 -11
15 -7 0 -9 13 -4 38 16 93 17 142 2 142 -10 0 -16 -18 -20 -67z"/>
<path d="M5241 798 c-7 -11 -16 -56 -18 -99 -6 -81 5 -109 40 -109 19 0 31 30
17 44 -7 7 -10 6 -10 -4 0 -11 -3 -11 -16 2 -14 13 -15 28 -9 82 6 63 11 71
43 67 6 -1 12 7 12 19 0 28 -41 27 -59 -2z"/>
<path d="M5360 810 c0 -5 -6 -10 -14 -10 -27 0 -46 -132 -26 -180 14 -34 36
-39 45 -10 7 23 21 26 28 8 10 -28 16 2 17 87 1 50 1 96 1 103 -1 14 -51 17
-51 2z m29 -63 c-2 -60 -12 -100 -26 -105 -16 -5 -17 67 -2 121 13 48 29 39
28 -16z"/>
<path d="M6208 802 c-21 -22 -33 -106 -24 -166 6 -36 11 -46 26 -46 10 0 22 9
25 20 7 21 25 28 25 10 0 -5 6 -10 13 -10 9 0 12 25 11 93 0 50 -1 98 -2 105
-3 18 -54 14 -74 -6z m37 -109 c-9 -77 -29 -68 -23 11 6 71 21 108 26 67 2
-14 1 -49 -3 -78z"/>
<path d="M6330 800 c0 -11 5 -20 10 -20 15 0 12 -53 -5 -77 -8 -12 -18 -43
-21 -70 -4 -35 -3 -44 5 -33 7 10 11 11 11 3 0 -8 14 -13 36 -13 31 0 35 3 32
23 -2 14 -11 23 -25 25 -26 4 -33 45 -10 59 12 7 37 83 37 112 0 6 -16 11 -35
11 -28 0 -35 -4 -35 -20z"/>
<path d="M6447 801 c-32 -33 -36 -211 -5 -211 6 0 21 12 34 28 19 21 24 23 24
10 0 -10 6 -18 13 -18 9 0 12 27 12 103 l0 102 -30 2 c-18 2 -37 -5 -48 -16z
m45 -116 c-6 -30 -13 -40 -27 -40 -14 0 -21 8 -23 28 -2 15 1 27 7 27 6 0 11
16 11 36 0 23 6 42 18 50 15 11 17 9 20 -24 2 -20 -1 -55 -6 -77z"/>
<path d="M6656 788 c-8 -46 -10 -187 -2 -195 14 -14 18 10 22 116 4 106 -7
148 -20 79z"/>
<path d="M5790 745 c0 -21 5 -25 30 -25 25 0 30 4 30 25 0 21 -5 25 -30 25
-25 0 -30 -4 -30 -25z"/>
</g>
</svg>
